<svg xmlns="http://www.w3.org/2000/svg" width="498.671" height="495.827" viewBox="0 0 498.671 495.827">
    <defs>
        <style>
            .a{fill:#dd0031}.b{fill:#fff}
        </style>
    </defs>
    <g transform="translate(-241.195 -248.136)">
        <g transform="translate(465.366 420.576)">
            <g transform="translate(4.381)">
                <path class="a" d="M344.224,360.456h-.015A27.778,27.778,0,1,1,372,332.689v.006a27.772,27.772,0,0,1-27.776,27.761Zm-.009-41.538a13.759,13.759,0,1,0,0,27.518h.006a13.754,13.754,0,0,0,13.762-13.747v0a13.764,13.764,0,0,0-13.768-13.768Z" transform="translate(-316.427 -304.898)"/>
            </g>
            <g transform="translate(0 95.082)">
                <path class="a" d="M336.2,346.8a10.607,10.607,0,1,1-10.6-10.6A10.6,10.6,0,0,1,336.2,346.8Z" transform="translate(-314.985 -336.196)"/>
            </g>
            <g transform="translate(56.576 73.749)">
                <path class="a" d="M359.56,342.914a12.207,12.207,0,1,1-12.213-12.2A12.208,12.208,0,0,1,359.56,342.914Z" transform="translate(-330.472 -326.038)"/>
                <path class="a" d="M350.478,362.935a16.88,16.88,0,1,1,16.891-16.888A16.9,16.9,0,0,1,350.478,362.935Zm.006-24.413a7.533,7.533,0,1,0,7.54,7.525A7.535,7.535,0,0,0,350.484,338.522Z" transform="translate(-333.608 -329.174)"/>
            </g>
        </g>
        <g transform="translate(241.195 248.136)">
            <g transform="translate(154.808 98.555)">
                <path class="b" d="M471.383,332.771A128.994,128.994,0,0,0,404.8,300.493a131.388,131.388,0,0,0-31.315-1.261,128.834,128.834,0,0,0-70.01,27.509l-11.319-14.3a146.959,146.959,0,0,1,79.865-31.388,150.069,150.069,0,0,1,35.693,1.434A147.166,147.166,0,0,1,483.7,319.307Z" transform="translate(-292.153 -280.577)"/>
            </g>
            <g transform="translate(98.591 154.729)">
                <path class="b" d="M305.771,482.867a147.272,147.272,0,0,1-30.662-71.228,148.78,148.78,0,0,1-1.461-20.822,146.44,146.44,0,0,1,31.9-91.749l14.3,11.329a128.339,128.339,0,0,0-27.952,80.421,130.621,130.621,0,0,0,1.279,18.276,129.11,129.11,0,0,0,26.865,62.412Z" transform="translate(-273.648 -299.068)"/>
            </g>
            <g transform="translate(155.091 342.484)">
                <path class="b" d="M383.7,412.823h-.018c-3.989,0-8-.164-11.912-.483a147.055,147.055,0,0,1-79.524-31.16l11.283-14.339a128.919,128.919,0,0,0,69.709,27.317c3.445.28,6.957.419,10.448.419h.018a129.331,129.331,0,0,0,87.211-33.706l12.276,13.5A147.581,147.581,0,0,1,383.7,412.823Z" transform="translate(-292.246 -360.871)"/>
            </g>
            <g transform="translate(353.496 163.159)">
                <path class="b" d="M372.59,468.879l-15.035-10.341a129.718,129.718,0,0,0,.225-146.4l15.062-10.3a147.952,147.952,0,0,1-.252,167.036Z" transform="translate(-357.555 -301.843)"/>
            </g>
            <g transform="translate(209.458 384.362)">
                <g transform="translate(0 26.181)">
                    <path class="b" d="M352.783,468.558a42.642,42.642,0,0,1,0-85.284h.009a42.645,42.645,0,0,1,42.635,42.644h0A42.7,42.7,0,0,1,352.783,468.558Zm.006-67.032a24.393,24.393,0,1,0,24.389,24.395h0a24.38,24.38,0,0,0-24.386-24.395Z" transform="translate(-310.142 -383.274)"/>
                </g>
                <g transform="translate(16.769)">
                    <g transform="translate(33.518 0.003)">
                        <rect class="b" width="18.249" height="40.891"/>
                    </g>
                    <rect class="b" width="18.249" height="40.891"/>
                </g>
            </g>
            <g transform="translate(209.513)">
                <path class="b" d="M352.81,333.417H352.8a42.645,42.645,0,0,1-42.641-42.644h0a42.647,42.647,0,1,1,42.65,42.644Zm0-67.032a24.419,24.419,0,0,0-24.395,24.392h0A24.38,24.38,0,0,0,352.8,315.171h.006a24.393,24.393,0,0,0,0-48.786Z" transform="translate(-310.16 -248.136)"/>
                <g transform="translate(16.754 70.572)">
                    <rect class="b" width="18.249" height="40.891"/>
                    <g transform="translate(33.518 0.003)">
                        <rect class="b" width="18.249" height="40.891"/>
                    </g>
                </g>
            </g>
            <g transform="translate(0 201.085)">
                <g transform="translate(70.575 22.296)">
                    <g transform="translate(0 33.521)">
                        <rect class="b" width="39.94" height="18.249"/>
                    </g>
                    <g transform="translate(0.003)">
                        <rect class="b" width="36.149" height="18.249"/>
                    </g>
                </g>
                <g transform="translate(0 5.532)">
                    <path class="b" d="M283.83,401.433a42.642,42.642,0,0,1,.009-85.284h0a42.642,42.642,0,1,1-.009,85.284Zm.009-67.039a24.4,24.4,0,1,0,17.25,7.148A24.419,24.419,0,0,0,283.839,334.394Z" transform="translate(-241.195 -316.148)"/>
                </g>
                <g transform="translate(413.386)">
                    <path class="b" d="M419.907,399.612a42.642,42.642,0,0,1,.009-85.285h0a42.642,42.642,0,0,1-.009,85.285Zm.009-67.039a24.4,24.4,0,1,0,24.392,24.4,24.428,24.428,0,0,0-24.392-24.4Z" transform="translate(-377.269 -314.327)"/>
                </g>
                <g transform="translate(387.208 16.751)">
                    <g transform="translate(0.003)">
                        <rect class="b" width="40.891" height="18.249"/>
                    </g>
                    <g transform="translate(0 33.518)">
                        <rect class="b" width="40.891" height="18.249"/>
                    </g>
                </g>
            </g>
            <g transform="translate(319.38 36.311)">
                <g transform="translate(54.778 324.006)">
                    <path class="b" d="M412.562,463.147a48.217,48.217,0,1,1,34.1-82.3h0a48.2,48.2,0,0,1-34.1,82.3Zm0-78.173a29.974,29.974,0,1,0,0,59.948h0a29.974,29.974,0,1,0-.006-59.948Z" transform="translate(-364.356 -366.741)"/>
                </g>
                <g transform="translate(0.021 57.614)">
                    <path class="b" d="M381.578,372.628l-12.744-13.054,51.56-50.36-5.283-5.043-5.359-5.608-50.366,51.566-13.054-12.753L403.3,279.053l13.13.085,11.575,12.14,11.818,11.259.082,13.127Z" transform="translate(-346.332 -279.053)"/>
                </g>
                <g transform="translate(0 269.721)">
                    <path class="b" d="M403.274,442.447l-56.949-58.335,13.054-12.744,50.345,51.572,5.058-5.3,5.6-5.344-51.554-50.378,12.753-13.045,58.307,56.98-.082,13.121-12.127,11.566L416.4,442.374Z" transform="translate(-346.325 -348.872)"/>
                </g>
                <g transform="translate(54.822)">
                    <path class="b" d="M412.575,356.518h-.009a48.234,48.234,0,1,1,.009,0ZM384.93,280.633l6.45,6.45a29.981,29.981,0,0,0,21.193,51.189h0a29.982,29.982,0,1,0,0-59.963h-.006a29.786,29.786,0,0,0-21.2,8.774Z" transform="translate(-364.371 -260.088)"/>
                </g>
            </g>
            <g transform="translate(36.318 36.262)">
                <g transform="translate(0 324.003)">
                    <path class="b" d="M301.354,463.136a48.208,48.208,0,1,1,34.1-14.1A48.058,48.058,0,0,1,301.354,463.136Zm0-78.173a29.908,29.908,0,0,0-21.2,8.765h0a30.019,30.019,0,1,0,21.2-8.765Z" transform="translate(-253.15 -366.724)"/>
                </g>
                <g transform="translate(57.664 57.635)">
                    <path class="b" d="M330.444,372.619l-58.313-56.977.082-13.133,12.134-11.559L295.6,279.123l13.13-.079L365.7,337.376l-13.054,12.753-50.36-51.572-5.04,5.289-5.605,5.347,51.557,50.382Z" transform="translate(-272.131 -279.044)"/>
                </g>
                <g transform="translate(57.637 269.742)">
                    <path class="b" d="M308.708,442.438l-13.13-.088-11.562-12.14-11.821-11.259-.073-13.127,58.326-56.962,12.744,13.054-51.563,50.357,5.292,5.046,5.344,5.605,50.378-51.56,13.045,12.75Z" transform="translate(-272.122 -348.863)"/>
                </g>
                <g transform="translate(0.013)">
                    <path class="b" d="M301.385,356.481a48.217,48.217,0,1,1,34.1-82.3h0a48.211,48.211,0,0,1-34.1,82.3Zm0-78.17a29.976,29.976,0,1,0-.006,59.951h.006a29.976,29.976,0,1,0,0-59.951Z" transform="translate(-253.154 -260.072)"/>
                </g>
            </g>
        </g>
    </g>
</svg>
